<svg width="38" height="70" viewBox="0 0 38 70" fill="none" xmlns="http://www.w3.org/2000/svg">
<mask id="path-1-inside-1_9_172" fill="white">
<path d="M37.9423 39.1796C37.3263 42.2273 36.8143 45.272 34.9705 48.0678C34.9523 48.4564 34.708 48.9333 34.365 49.2039C34.0925 50.4173 33.3392 51.6062 33.0983 52.8537C33.5671 55.4302 32.3954 58.2269 32.9549 60.8197C33.1223 61.0768 33.1142 61.3777 33.1142 61.6847C33.7206 63.4048 33.403 65.299 33.903 67.0224C34.258 67.7104 34.471 68.813 33.3152 69.0869C32.9338 69.1776 32.4861 68.991 32.1042 69.003C31.4944 69.0222 30.9258 69.2616 30.3232 69.3763C29.7163 69.4919 28.9822 69.3489 28.8546 68.8048C28.7884 68.5222 28.9078 68.2123 29.0105 67.9191C29.7451 65.8258 29.7091 63.6576 29.6649 61.5422C29.6429 60.4761 29.6184 59.3976 29.3161 58.403C29.0988 57.6881 28.7394 57.0259 28.6032 56.2842C28.4875 55.6566 28.536 54.9945 28.5878 54.3396C28.7668 52.0927 28.9865 49.8022 28.4669 47.6863C28.5394 48.9343 28.5154 50.4039 27.4574 51.3011C27.005 51.6849 26.4321 51.8922 25.877 52.0894C24.7533 52.489 23.6301 52.8887 22.5065 53.2884C22.4047 53.3244 22.292 53.3608 22.1999 53.3258C22.101 53.2884 22.0593 53.1823 22.0267 53.0854C21.7508 52.2731 21.4749 51.4608 21.1985 50.6486C21.7724 52.6579 21.3847 54.8957 21.4557 57.0327C21.5003 58.3809 21.7287 59.695 21.9566 61.0049C22.3246 63.1193 22.696 65.2457 23.4555 67.221C23.704 67.8673 23.9962 68.5054 24.0735 69.2079C22.2915 69.3854 20.5412 69.797 18.741 70C18.2948 69.5288 18.789 68.9377 18.7329 68.4128C18.7569 68.3802 18.7967 68.3605 18.8284 68.3342C18.8361 68.1384 18.8682 67.9475 19.0117 67.7728C19.0596 67.4749 19.1153 67.1836 19.171 66.8847C18.7679 66.687 18.8533 66.1046 18.956 65.7116C19.7169 61.5917 17.9623 57.8406 16.6295 54.2566C16.0082 54.1909 16.1065 53.2126 15.8887 52.7419C13.2585 55.7123 15.1498 51.2886 12.1362 49.4961C12.0326 49.4558 11.9371 49.4222 11.8335 49.3824C10.2214 53.5129 9.29924 57.9999 10.5904 62.0201C11.3748 63.7459 10.6153 66.0029 11.2117 67.827C11.2069 68.2843 11.6891 68.7497 11.0524 69.1944C10.7415 69.2016 10.4311 69.216 10.1202 69.2232C9.46668 68.4911 8.88181 69.5404 8.08872 69.5029C7.69816 69.3844 7.26012 69.3547 6.98904 69.0347C6.71028 68.978 6.54283 68.8106 6.46318 68.5654C6.22376 68.2651 6.41857 67.3938 6.65463 67.044C7.53456 65.8009 6.67812 64.6374 7.39541 63.4043C7.39541 63.3592 7.41125 63.3199 7.43524 63.2796C7.64923 59.7003 5.84233 56.6536 5.59476 53.2274C4.89906 53.7912 4.58624 54.5536 3.74612 54.9691C4.3545 53.2058 4.69802 51.4724 5.38749 49.8209C5.41148 49.6683 5.40332 49.5043 5.54678 49.3747C5.53862 49.3306 5.53863 49.2931 5.56262 49.2528C5.37646 48.9899 5.40045 48.6742 5.411 48.3643C5.38029 48.3369 5.38221 48.3033 5.40285 48.2678C4.76808 46.0243 4.57856 43.6354 4.29548 41.2974C3.90445 38.7507 4.02153 36.0744 4.14436 33.4711C3.85744 33.258 4.12036 33.0095 4.16834 32.7715C4.14435 32.4673 4.10453 32.1574 4.31996 31.8618C4.67117 30.3404 6.94106 27.0371 8.36028 26.1341C9.59527 25.3482 15.252 26.1619 15.418 27.7395C15.2933 26.5558 14.1456 25.8069 12.9634 25.4849C11.7812 25.1625 10.4814 25.1304 9.34865 24.7029C7.64779 24.0614 7.32633 24.1113 6.77361 22.3313C6.56634 21.6634 6.43199 20.6266 6.82926 19.9424C7.62572 19.4074 8.32621 18.824 9.05213 18.206C9.36064 17.9436 9.64372 17.826 9.85915 17.4484C10.0256 17.1572 9.95224 16.7681 10.0919 16.5229C9.89274 16.8741 9.65092 17.2076 9.3736 17.5132C9.33954 16.9907 9.22295 16.4826 9.02863 16.011C7.68714 16.2873 6.30437 16.5747 5.08426 16.0527C3.8939 15.5432 2.57879 15.1929 1.41961 14.6292C0.784849 14.3207 0.24077 13.7439 0.305542 13.0295C1.83704 12.9763 3.1296 12.4581 4.5493 11.8238C5.00654 11.6194 8.66063 11.1118 8.6304 11.1699C8.31853 11.7682 8.18947 12.4236 8.45912 12.9988C8.5877 11.9054 9.43357 10.7726 10.3946 10.1047C9.71281 9.67052 8.85447 9.44166 8.09016 9.13171C7.78118 9.00648 6.24297 7.95286 6.04049 8.0042C5.45371 8.15293 3.28697 4.81407 4.31948 5.2502C4.43127 5.31929 4.54258 5.39605 4.65389 5.46514C8.58386 7.79453 12.8914 6.51637 17.4653 5.8768C17.6726 5.63499 18.0151 5.6988 18.2459 5.49921C19.6258 5.11681 21.1237 4.49021 22.4686 4.55306C23.5759 4.45086 24.4367 3.68895 25.4246 3.28641C25.7551 2.8997 26.0867 2.53121 26.3568 2.11859C26.3352 1.6436 26.7939 1.2852 26.707 0.810681C26.7128 -0.133069 27.6172 -0.331706 27.6551 0.637473C27.6753 1.14749 28.1076 1.65991 28.1359 2.22511C28.1675 2.85507 28.0303 3.50903 27.7458 4.11789C27.1979 5.29002 25.8981 6.56674 24.7015 7.16456C23.9525 7.5388 23.0218 7.64148 22.41 7.21878C22.446 7.59206 22.8438 7.78925 23.2137 7.89625C23.5836 8.00276 24.0024 8.09584 24.1905 8.40866C24.2366 8.48543 24.2663 8.57227 24.3191 8.64424C24.4866 8.87214 24.8474 8.89757 25.1544 8.81073C26.0982 8.54348 26.5554 7.38239 27.4075 6.89588C28.0054 6.55475 28.6583 6.32397 29.3161 6.18339C30.6327 5.90223 32.0663 6.1023 33.2547 6.46934C34.0358 6.71068 34.9057 6.9381 35.7281 6.60848C35.611 6.6555 35.2253 7.41213 35.0775 7.56039C34.7642 7.87321 34.4182 7.98357 34.0747 8.21531C33.3392 8.71093 32.7553 9.41479 32.0725 10.0025C30.7095 11.1756 28.9098 12.3142 27.1619 11.8152C26.8275 11.7576 26.6044 11.9716 26.3813 12.1707C26.4796 13.2032 27.4075 13.2541 28.1263 13.7228C30.6159 14.6455 31.931 16.7484 33.843 18.3605C35.9939 20.1736 36.6051 23.4396 36.7069 26.2372C37.9505 30.1687 38.0373 34.8044 37.9423 39.1796Z"/>
</mask>
<path d="M37.9423 39.1796C37.3263 42.2273 36.8143 45.272 34.9705 48.0678C34.9523 48.4564 34.708 48.9333 34.365 49.2039C34.0925 50.4173 33.3392 51.6062 33.0983 52.8537C33.5671 55.4302 32.3954 58.2269 32.9549 60.8197C33.1223 61.0768 33.1142 61.3777 33.1142 61.6847C33.7206 63.4048 33.403 65.299 33.903 67.0224C34.258 67.7104 34.471 68.813 33.3152 69.0869C32.9338 69.1776 32.4861 68.991 32.1042 69.003C31.4944 69.0222 30.9258 69.2616 30.3232 69.3763C29.7163 69.4919 28.9822 69.3489 28.8546 68.8048C28.7884 68.5222 28.9078 68.2123 29.0105 67.9191C29.7451 65.8258 29.7091 63.6576 29.6649 61.5422C29.6429 60.4761 29.6184 59.3976 29.3161 58.403C29.0988 57.6881 28.7394 57.0259 28.6032 56.2842C28.4875 55.6566 28.536 54.9945 28.5878 54.3396C28.7668 52.0927 28.9865 49.8022 28.4669 47.6863C28.5394 48.9343 28.5154 50.4039 27.4574 51.3011C27.005 51.6849 26.4321 51.8922 25.877 52.0894C24.7533 52.489 23.6301 52.8887 22.5065 53.2884C22.4047 53.3244 22.292 53.3608 22.1999 53.3258C22.101 53.2884 22.0593 53.1823 22.0267 53.0854C21.7508 52.2731 21.4749 51.4608 21.1985 50.6486C21.7724 52.6579 21.3847 54.8957 21.4557 57.0327C21.5003 58.3809 21.7287 59.695 21.9566 61.0049C22.3246 63.1193 22.696 65.2457 23.4555 67.221C23.704 67.8673 23.9962 68.5054 24.0735 69.2079C22.2915 69.3854 20.5412 69.797 18.741 70C18.2948 69.5288 18.789 68.9377 18.7329 68.4128C18.7569 68.3802 18.7967 68.3605 18.8284 68.3342C18.8361 68.1384 18.8682 67.9475 19.0117 67.7728C19.0596 67.4749 19.1153 67.1836 19.171 66.8847C18.7679 66.687 18.8533 66.1046 18.956 65.7116C19.7169 61.5917 17.9623 57.8406 16.6295 54.2566C16.0082 54.1909 16.1065 53.2126 15.8887 52.7419C13.2585 55.7123 15.1498 51.2886 12.1362 49.4961C12.0326 49.4558 11.9371 49.4222 11.8335 49.3824C10.2214 53.5129 9.29924 57.9999 10.5904 62.0201C11.3748 63.7459 10.6153 66.0029 11.2117 67.827C11.2069 68.2843 11.6891 68.7497 11.0524 69.1944C10.7415 69.2016 10.4311 69.216 10.1202 69.2232C9.46668 68.4911 8.88181 69.5404 8.08872 69.5029C7.69816 69.3844 7.26012 69.3547 6.98904 69.0347C6.71028 68.978 6.54283 68.8106 6.46318 68.5654C6.22376 68.2651 6.41857 67.3938 6.65463 67.044C7.53456 65.8009 6.67812 64.6374 7.39541 63.4043C7.39541 63.3592 7.41125 63.3199 7.43524 63.2796C7.64923 59.7003 5.84233 56.6536 5.59476 53.2274C4.89906 53.7912 4.58624 54.5536 3.74612 54.9691C4.3545 53.2058 4.69802 51.4724 5.38749 49.8209C5.41148 49.6683 5.40332 49.5043 5.54678 49.3747C5.53862 49.3306 5.53863 49.2931 5.56262 49.2528C5.37646 48.9899 5.40045 48.6742 5.411 48.3643C5.38029 48.3369 5.38221 48.3033 5.40285 48.2678C4.76808 46.0243 4.57856 43.6354 4.29548 41.2974C3.90445 38.7507 4.02153 36.0744 4.14436 33.4711C3.85744 33.258 4.12036 33.0095 4.16834 32.7715C4.14435 32.4673 4.10453 32.1574 4.31996 31.8618C4.67117 30.3404 6.94106 27.0371 8.36028 26.1341C9.59527 25.3482 15.252 26.1619 15.418 27.7395C15.2933 26.5558 14.1456 25.8069 12.9634 25.4849C11.7812 25.1625 10.4814 25.1304 9.34865 24.7029C7.64779 24.0614 7.32633 24.1113 6.77361 22.3313C6.56634 21.6634 6.43199 20.6266 6.82926 19.9424C7.62572 19.4074 8.32621 18.824 9.05213 18.206C9.36064 17.9436 9.64372 17.826 9.85915 17.4484C10.0256 17.1572 9.95224 16.7681 10.0919 16.5229C9.89274 16.8741 9.65092 17.2076 9.3736 17.5132C9.33954 16.9907 9.22295 16.4826 9.02863 16.011C7.68714 16.2873 6.30437 16.5747 5.08426 16.0527C3.8939 15.5432 2.57879 15.1929 1.41961 14.6292C0.784849 14.3207 0.24077 13.7439 0.305542 13.0295C1.83704 12.9763 3.1296 12.4581 4.5493 11.8238C5.00654 11.6194 8.66063 11.1118 8.6304 11.1699C8.31853 11.7682 8.18947 12.4236 8.45912 12.9988C8.5877 11.9054 9.43357 10.7726 10.3946 10.1047C9.71281 9.67052 8.85447 9.44166 8.09016 9.13171C7.78118 9.00648 6.24297 7.95286 6.04049 8.0042C5.45371 8.15293 3.28697 4.81407 4.31948 5.2502C4.43127 5.31929 4.54258 5.39605 4.65389 5.46514C8.58386 7.79453 12.8914 6.51637 17.4653 5.8768C17.6726 5.63499 18.0151 5.6988 18.2459 5.49921C19.6258 5.11681 21.1237 4.49021 22.4686 4.55306C23.5759 4.45086 24.4367 3.68895 25.4246 3.28641C25.7551 2.8997 26.0867 2.53121 26.3568 2.11859C26.3352 1.6436 26.7939 1.2852 26.707 0.810681C26.7128 -0.133069 27.6172 -0.331706 27.6551 0.637473C27.6753 1.14749 28.1076 1.65991 28.1359 2.22511C28.1675 2.85507 28.0303 3.50903 27.7458 4.11789C27.1979 5.29002 25.8981 6.56674 24.7015 7.16456C23.9525 7.5388 23.0218 7.64148 22.41 7.21878C22.446 7.59206 22.8438 7.78925 23.2137 7.89625C23.5836 8.00276 24.0024 8.09584 24.1905 8.40866C24.2366 8.48543 24.2663 8.57227 24.3191 8.64424C24.4866 8.87214 24.8474 8.89757 25.1544 8.81073C26.0982 8.54348 26.5554 7.38239 27.4075 6.89588C28.0054 6.55475 28.6583 6.32397 29.3161 6.18339C30.6327 5.90223 32.0663 6.1023 33.2547 6.46934C34.0358 6.71068 34.9057 6.9381 35.7281 6.60848C35.611 6.6555 35.2253 7.41213 35.0775 7.56039C34.7642 7.87321 34.4182 7.98357 34.0747 8.21531C33.3392 8.71093 32.7553 9.41479 32.0725 10.0025C30.7095 11.1756 28.9098 12.3142 27.1619 11.8152C26.8275 11.7576 26.6044 11.9716 26.3813 12.1707C26.4796 13.2032 27.4075 13.2541 28.1263 13.7228C30.6159 14.6455 31.931 16.7484 33.843 18.3605C35.9939 20.1736 36.6051 23.4396 36.7069 26.2372C37.9505 30.1687 38.0373 34.8044 37.9423 39.1796Z" fill="#FEC552" stroke="#FFAA00" stroke-width="2" mask="url(#path-1-inside-1_9_172)"/>
</svg>
