<svg width="41" height="70" viewBox="0 0 41 70" fill="none" xmlns="http://www.w3.org/2000/svg">
<mask id="path-1-inside-1_9_167" fill="white">
<path d="M40.2849 52.1701C39.8771 51.0844 38.9092 50.3713 38.4779 49.2938C38.0648 48.262 37.9734 47.1294 37.8855 46.0325C37.7068 43.8043 37.851 41.5754 37.8123 39.3448C37.7859 37.8366 38.2599 36.3912 37.8756 34.9152C37.0494 31.7413 34.5628 28.9101 31.6513 27.4746C30.8334 27.0714 29.9644 26.758 29.2156 26.2371C28.6455 25.8404 28.1604 25.3336 27.5961 24.9293C26.4342 24.0961 24.9753 23.7223 23.8855 22.7971C22.5179 21.637 21.8095 19.6818 20.149 19.0033C20.5885 18.1812 21.2154 17.1277 22.0322 16.6379C22.7166 16.2272 23.6845 16.4053 24.2915 15.8739C24.6401 15.5686 24.7474 15.0788 24.8353 14.6235C24.9653 13.9485 25.0948 13.2624 25.0269 12.5786C24.9589 11.8948 24.6636 11.2017 24.0993 10.8091C23.4308 10.3445 22.5636 10.4265 21.8787 10.0339C20.6512 9.33084 19.4957 8.40156 18.3356 7.5467C19.0434 7.74416 19.7512 7.9422 20.4584 8.13965C20.5709 8.17129 20.6887 8.20235 20.8029 8.17891C21.5406 8.02364 21.908 5.67877 21.85 5.13328C21.7029 3.75284 20.9705 2.49076 20.0512 1.45016C19.545 0.877127 18.911 0.327531 18.1475 0.285345C19.2426 1.71734 19.5754 3.69952 19.0082 5.41042C18.9145 5.69401 18.7868 5.98404 18.5465 6.16158C18.2553 6.37778 17.8622 6.38364 17.5001 6.36196C15.8161 6.26353 14.1521 5.96822 12.4699 5.84576C11.083 5.74499 9.40201 6.24009 8.63445 4.70321C8.25009 3.93272 8.30341 2.99993 8.5993 2.19194C8.89519 1.38337 9.41198 0.676742 9.944 0C8.75516 0.145309 7.65656 0.805646 6.889 1.72496C6.12144 2.64428 5.67379 3.80733 5.52145 4.995C5.47457 5.35827 5.45524 5.73034 5.52672 6.08951C5.84546 7.68381 7.80596 8.53515 8.14287 10.1259C7.12219 9.66774 6.03765 9.19959 4.92674 9.32967C3.50998 9.49607 2.37329 10.5958 0.994607 10.9626C0.863946 11.4495 1.28287 11.8966 1.6643 12.2265C2.83088 13.2349 4.20956 14.2913 5.73883 14.0962C6.82396 13.9579 7.86456 13.1909 8.91864 13.4833C10.1538 13.826 6.02066 22.2294 5.90641 23.0491C5.71598 24.4149 6.21226 25.783 6.2269 27.1623C6.24624 29.0642 5.35328 30.8624 5.17223 32.7561C5.00583 34.498 5.44704 36.2347 5.88531 37.9286C6.52514 40.4047 7.16496 42.8814 7.80479 45.3575C8.32568 47.3743 9.63581 50.1721 9.23152 52.2328C9.15125 52.6418 9.02117 53.0501 9.05457 53.4656C9.10378 54.079 9.49753 54.6011 9.76412 55.156C10.3459 56.3676 10.3266 57.7698 10.295 59.1133C10.2633 60.4773 9.95338 58.4541 9.89889 59.8176C9.86315 60.7041 9.81568 61.604 9.52623 62.4431C9.33698 62.9909 9.04403 63.5206 9.02996 64.1001C9.01883 64.5483 9.17351 65.0223 8.98601 65.4295C8.80145 65.8297 8.35322 66.0202 8.00987 66.2961C7.33313 66.8399 7.05832 67.7287 6.81868 68.5637C6.78293 68.6873 6.75072 68.8314 6.82513 68.9363C6.90013 69.0418 7.0472 69.0582 7.1761 69.064C8.66786 69.1332 10.1667 69.0564 11.6438 68.8355C12.0358 68.7769 12.467 68.6838 12.6984 68.3615C13.1642 67.7123 12.4518 66.7461 12.7986 66.026C12.9205 65.7729 13.1566 65.5942 13.3054 65.3563C13.667 64.7768 13.4367 64.0315 13.282 63.3659C12.9199 61.8109 13.0383 60.1873 13.1994 58.5983C13.4537 56.0905 14.0877 56.9799 14.5429 54.5003C14.639 53.9771 14.7398 53.4503 14.7328 52.9183C14.7257 52.4103 14.6191 51.9082 14.5927 51.4008C14.5593 50.7592 14.6537 50.1176 14.6355 49.4754C14.6208 48.9493 14.5312 48.4284 14.4416 47.9098C14.3039 47.113 14.1667 46.3167 14.0291 45.5204C14.2001 46.1169 14.6144 46.8282 14.7949 47.3081C15.1048 48.1319 15.4324 48.9522 15.7077 49.7871C16.153 51.1377 17.3577 51.8924 18.7252 52.2797C19.9692 52.6318 21.2793 52.6523 22.5718 52.6699C22.5589 51.7711 22.5461 50.8728 22.5338 49.974C22.7447 53.0876 23.9066 56.0595 24.3495 59.1484C24.4825 60.0765 24.4163 60.8019 24.3437 61.706C24.2118 63.3401 24.5318 64.9919 24.1761 66.6389C23.9611 67.6338 23.5761 68.6299 23.7202 69.6371C24.8276 69.8697 27.4567 70.4093 28.3602 69.4519C29.174 68.5894 28.5459 66.3272 28.4721 65.2836C28.4475 64.9362 28.4328 64.553 28.6461 64.2776C28.7809 64.1024 28.9918 63.9964 29.1207 63.8171C29.2988 63.5698 29.2889 63.2394 29.2713 62.9353C29.2203 62.0335 28.8612 61.1505 28.6643 60.2799C28.4393 59.2844 28.2582 58.3123 28.1856 57.2911C28.1241 56.4239 28.3848 58.9422 28.366 58.0733C28.3496 57.3122 28.3326 56.5505 28.2846 55.7905C28.1961 54.3937 28.3854 53.0665 28.158 51.6498C28.0309 50.86 27.8211 50.0854 27.6928 49.2955C27.5006 48.1167 27.4901 46.9079 27.6629 45.7261C27.9764 47.57 28.2904 49.4145 28.6039 51.2584C29.5842 50.4059 30.5064 49.4778 31.3396 48.4794C30.9711 49.885 30.0207 51.14 28.7328 51.8209C28.7551 52.4566 28.8248 53.0912 28.942 53.7163C28.976 53.898 29.0223 54.0937 29.1646 54.2126C29.2783 54.3075 29.4336 54.3357 29.5584 54.4148C29.8666 54.6099 29.9053 55.0323 29.9644 55.3921C30.0236 55.7518 30.2269 56.1766 30.592 56.1725C30.7355 55.7308 30.3084 55.2784 30.3752 54.8185C30.4015 54.6368 30.5023 54.4763 30.5966 54.3187C31.4708 52.8591 31.9443 51.1629 31.9531 49.4614C31.956 48.8965 31.9144 48.3288 31.9085 47.7639C32.6685 46.7661 33.337 45.7027 33.8655 44.5642C33.4413 45.4788 33.4665 46.5733 33.3429 47.553C33.1858 48.7957 33.1425 50.0502 33.1343 51.3017C33.1179 53.8154 33.2626 56.3372 32.9972 58.8432C32.8618 60.1205 32.3427 57.9965 32.1019 59.258C31.7679 61.0099 31.4334 62.7618 31.0988 64.5137C30.9617 65.2315 30.8556 65.9059 30.5603 66.5651C30.2486 67.2617 29.8912 67.9514 29.7494 68.7125C29.7113 68.9152 29.7019 69.1537 29.8502 69.2966C30.0037 69.4443 30.2492 69.4191 30.459 69.3834C31.5681 69.1959 32.6767 69.009 33.7858 68.8215C34.019 68.7822 34.2622 68.7388 34.4514 68.597C34.8405 68.3064 34.8557 67.7311 34.7673 67.2541C34.6794 66.7766 34.5264 66.2727 34.7046 65.8209C34.9202 65.2737 35.5518 64.9907 35.8085 64.4616C36.112 63.837 35.8079 63.1075 35.5969 62.4466C34.7538 59.807 35.7499 60.3232 36.6739 57.7112C36.9621 56.895 37.1402 56.353 36.9662 55.5292C36.7459 54.4839 36.5578 53.431 36.3569 52.3822C36.218 51.6586 36.0786 50.9332 36.0293 50.1979C35.9315 48.7442 36.1864 47.2923 36.4401 45.8579C36.5702 45.122 36.7002 44.3855 36.8309 43.6496C36.852 43.9847 36.8848 44.3199 36.9399 44.6539C37.0553 45.3452 37.2498 46.029 37.2563 46.7298C37.2703 48.2174 36.4448 49.7403 36.9686 51.133C37.5756 52.7455 39.6767 53.3144 40.4876 54.8349C40.5468 53.9378 40.6007 53.0103 40.2849 52.1701Z"/>
</mask>
<path d="M40.2849 52.1701C39.8771 51.0844 38.9092 50.3713 38.4779 49.2938C38.0648 48.262 37.9734 47.1294 37.8855 46.0325C37.7068 43.8043 37.851 41.5754 37.8123 39.3448C37.7859 37.8366 38.2599 36.3912 37.8756 34.9152C37.0494 31.7413 34.5628 28.9101 31.6513 27.4746C30.8334 27.0714 29.9644 26.758 29.2156 26.2371C28.6455 25.8404 28.1604 25.3336 27.5961 24.9293C26.4342 24.0961 24.9753 23.7223 23.8855 22.7971C22.5179 21.637 21.8095 19.6818 20.149 19.0033C20.5885 18.1812 21.2154 17.1277 22.0322 16.6379C22.7166 16.2272 23.6845 16.4053 24.2915 15.8739C24.6401 15.5686 24.7474 15.0788 24.8353 14.6235C24.9653 13.9485 25.0948 13.2624 25.0269 12.5786C24.9589 11.8948 24.6636 11.2017 24.0993 10.8091C23.4308 10.3445 22.5636 10.4265 21.8787 10.0339C20.6512 9.33084 19.4957 8.40156 18.3356 7.5467C19.0434 7.74416 19.7512 7.9422 20.4584 8.13965C20.5709 8.17129 20.6887 8.20235 20.8029 8.17891C21.5406 8.02364 21.908 5.67877 21.85 5.13328C21.7029 3.75284 20.9705 2.49076 20.0512 1.45016C19.545 0.877127 18.911 0.327531 18.1475 0.285345C19.2426 1.71734 19.5754 3.69952 19.0082 5.41042C18.9145 5.69401 18.7868 5.98404 18.5465 6.16158C18.2553 6.37778 17.8622 6.38364 17.5001 6.36196C15.8161 6.26353 14.1521 5.96822 12.4699 5.84576C11.083 5.74499 9.40201 6.24009 8.63445 4.70321C8.25009 3.93272 8.30341 2.99993 8.5993 2.19194C8.89519 1.38337 9.41198 0.676742 9.944 0C8.75516 0.145309 7.65656 0.805646 6.889 1.72496C6.12144 2.64428 5.67379 3.80733 5.52145 4.995C5.47457 5.35827 5.45524 5.73034 5.52672 6.08951C5.84546 7.68381 7.80596 8.53515 8.14287 10.1259C7.12219 9.66774 6.03765 9.19959 4.92674 9.32967C3.50998 9.49607 2.37329 10.5958 0.994607 10.9626C0.863946 11.4495 1.28287 11.8966 1.6643 12.2265C2.83088 13.2349 4.20956 14.2913 5.73883 14.0962C6.82396 13.9579 7.86456 13.1909 8.91864 13.4833C10.1538 13.826 6.02066 22.2294 5.90641 23.0491C5.71598 24.4149 6.21226 25.783 6.2269 27.1623C6.24624 29.0642 5.35328 30.8624 5.17223 32.7561C5.00583 34.498 5.44704 36.2347 5.88531 37.9286C6.52514 40.4047 7.16496 42.8814 7.80479 45.3575C8.32568 47.3743 9.63581 50.1721 9.23152 52.2328C9.15125 52.6418 9.02117 53.0501 9.05457 53.4656C9.10378 54.079 9.49753 54.6011 9.76412 55.156C10.3459 56.3676 10.3266 57.7698 10.295 59.1133C10.2633 60.4773 9.95338 58.4541 9.89889 59.8176C9.86315 60.7041 9.81568 61.604 9.52623 62.4431C9.33698 62.9909 9.04403 63.5206 9.02996 64.1001C9.01883 64.5483 9.17351 65.0223 8.98601 65.4295C8.80145 65.8297 8.35322 66.0202 8.00987 66.2961C7.33313 66.8399 7.05832 67.7287 6.81868 68.5637C6.78293 68.6873 6.75072 68.8314 6.82513 68.9363C6.90013 69.0418 7.0472 69.0582 7.1761 69.064C8.66786 69.1332 10.1667 69.0564 11.6438 68.8355C12.0358 68.7769 12.467 68.6838 12.6984 68.3615C13.1642 67.7123 12.4518 66.7461 12.7986 66.026C12.9205 65.7729 13.1566 65.5942 13.3054 65.3563C13.667 64.7768 13.4367 64.0315 13.282 63.3659C12.9199 61.8109 13.0383 60.1873 13.1994 58.5983C13.4537 56.0905 14.0877 56.9799 14.5429 54.5003C14.639 53.9771 14.7398 53.4503 14.7328 52.9183C14.7257 52.4103 14.6191 51.9082 14.5927 51.4008C14.5593 50.7592 14.6537 50.1176 14.6355 49.4754C14.6208 48.9493 14.5312 48.4284 14.4416 47.9098C14.3039 47.113 14.1667 46.3167 14.0291 45.5204C14.2001 46.1169 14.6144 46.8282 14.7949 47.3081C15.1048 48.1319 15.4324 48.9522 15.7077 49.7871C16.153 51.1377 17.3577 51.8924 18.7252 52.2797C19.9692 52.6318 21.2793 52.6523 22.5718 52.6699C22.5589 51.7711 22.5461 50.8728 22.5338 49.974C22.7447 53.0876 23.9066 56.0595 24.3495 59.1484C24.4825 60.0765 24.4163 60.8019 24.3437 61.706C24.2118 63.3401 24.5318 64.9919 24.1761 66.6389C23.9611 67.6338 23.5761 68.6299 23.7202 69.6371C24.8276 69.8697 27.4567 70.4093 28.3602 69.4519C29.174 68.5894 28.5459 66.3272 28.4721 65.2836C28.4475 64.9362 28.4328 64.553 28.6461 64.2776C28.7809 64.1024 28.9918 63.9964 29.1207 63.8171C29.2988 63.5698 29.2889 63.2394 29.2713 62.9353C29.2203 62.0335 28.8612 61.1505 28.6643 60.2799C28.4393 59.2844 28.2582 58.3123 28.1856 57.2911C28.1241 56.4239 28.3848 58.9422 28.366 58.0733C28.3496 57.3122 28.3326 56.5505 28.2846 55.7905C28.1961 54.3937 28.3854 53.0665 28.158 51.6498C28.0309 50.86 27.8211 50.0854 27.6928 49.2955C27.5006 48.1167 27.4901 46.9079 27.6629 45.7261C27.9764 47.57 28.2904 49.4145 28.6039 51.2584C29.5842 50.4059 30.5064 49.4778 31.3396 48.4794C30.9711 49.885 30.0207 51.14 28.7328 51.8209C28.7551 52.4566 28.8248 53.0912 28.942 53.7163C28.976 53.898 29.0223 54.0937 29.1646 54.2126C29.2783 54.3075 29.4336 54.3357 29.5584 54.4148C29.8666 54.6099 29.9053 55.0323 29.9644 55.3921C30.0236 55.7518 30.2269 56.1766 30.592 56.1725C30.7355 55.7308 30.3084 55.2784 30.3752 54.8185C30.4015 54.6368 30.5023 54.4763 30.5966 54.3187C31.4708 52.8591 31.9443 51.1629 31.9531 49.4614C31.956 48.8965 31.9144 48.3288 31.9085 47.7639C32.6685 46.7661 33.337 45.7027 33.8655 44.5642C33.4413 45.4788 33.4665 46.5733 33.3429 47.553C33.1858 48.7957 33.1425 50.0502 33.1343 51.3017C33.1179 53.8154 33.2626 56.3372 32.9972 58.8432C32.8618 60.1205 32.3427 57.9965 32.1019 59.258C31.7679 61.0099 31.4334 62.7618 31.0988 64.5137C30.9617 65.2315 30.8556 65.9059 30.5603 66.5651C30.2486 67.2617 29.8912 67.9514 29.7494 68.7125C29.7113 68.9152 29.7019 69.1537 29.8502 69.2966C30.0037 69.4443 30.2492 69.4191 30.459 69.3834C31.5681 69.1959 32.6767 69.009 33.7858 68.8215C34.019 68.7822 34.2622 68.7388 34.4514 68.597C34.8405 68.3064 34.8557 67.7311 34.7673 67.2541C34.6794 66.7766 34.5264 66.2727 34.7046 65.8209C34.9202 65.2737 35.5518 64.9907 35.8085 64.4616C36.112 63.837 35.8079 63.1075 35.5969 62.4466C34.7538 59.807 35.7499 60.3232 36.6739 57.7112C36.9621 56.895 37.1402 56.353 36.9662 55.5292C36.7459 54.4839 36.5578 53.431 36.3569 52.3822C36.218 51.6586 36.0786 50.9332 36.0293 50.1979C35.9315 48.7442 36.1864 47.2923 36.4401 45.8579C36.5702 45.122 36.7002 44.3855 36.8309 43.6496C36.852 43.9847 36.8848 44.3199 36.9399 44.6539C37.0553 45.3452 37.2498 46.029 37.2563 46.7298C37.2703 48.2174 36.4448 49.7403 36.9686 51.133C37.5756 52.7455 39.6767 53.3144 40.4876 54.8349C40.5468 53.9378 40.6007 53.0103 40.2849 52.1701Z" fill="#FEC552" stroke="#FFAA00" stroke-width="2" mask="url(#path-1-inside-1_9_167)"/>
</svg>
